<svg width="1280" height="720" xmlns="http://www.w3.org/2000/svg" xmlns:xlink="http://www.w3.org/1999/xlink" overflow="hidden"><defs><clipPath id="clip0"><rect x="0" y="0" width="1280" height="720"/></clipPath></defs><g clip-path="url(#clip0)"><rect x="0" y="0" width="1280" height="720" fill="#FFFFFF"/><path d="M0 106.583C0 86.9309 15.9309 71 35.5827 71L107.401 71C127.053 71 142.984 86.9309 142.984 106.583L142.984 658.417C142.984 678.069 127.053 694 107.401 694L35.5827 694C15.9309 694-4.95727e-15 678.069 0 658.417Z" fill="#7F7F7F" fill-rule="evenodd"/><path d="M0 134.587C0 114.933 15.9329 99 35.5871 99L107.413 99C127.067 99 143 114.933 143 134.587L143 624.413C143 644.067 127.067 660 107.413 660L35.5871 660C15.9329 660-4.46393e-15 644.067 0 624.413Z" fill="#80350E" fill-rule="evenodd"/><path d="M143 681.55C143 697.815 129.815 711 113.55 711L29.4876 711C13.2227 711 0.0373688 697.815 0.0373688 681.55L0.0373688 161.45C0.0373688 145.185 13.2227 132 29.4876 132L113.55 132C129.815 132 143 145.185 143 161.45Z" fill-rule="evenodd"/><rect x="0" y="632" width="143" height="88"/><path d="M206 78.0004C206 65.8499 215.85 56 228 56L373 56C385.15 56 395 65.8499 395 78.0004L395 166C395 178.15 385.15 188 373 188L228 188C215.85 188 206 178.15 206 166Z" stroke="#042433" stroke-width="2" stroke-miterlimit="8" fill="#996633" fill-rule="evenodd"/><path d="M420 78.0004C420 65.8499 429.85 56 442 56L587 56C599.15 56 609 65.8499 609 78.0004L609 166C609 178.15 599.15 188 587 188L442 188C429.85 188 420 178.15 420 166Z" stroke="#042433" stroke-width="2" stroke-miterlimit="8" fill="#996633" fill-rule="evenodd"/><path d="M634 78.0004C634 65.8499 643.85 56 656 56L801 56C813.15 56 823 65.8499 823 78.0004L823 166C823 178.15 813.15 188 801 188L656 188C643.85 188 634 178.15 634 166Z" stroke="#042433" stroke-width="2" stroke-miterlimit="8" fill="#996633" fill-rule="evenodd"/><path d="M848 78.0004C848 65.8499 857.85 56 870 56L1015 56C1027.15 56 1037 65.8499 1037 78.0004L1037 166C1037 178.15 1027.15 188 1015 188L870 188C857.85 188 848 178.15 848 166Z" stroke="#042433" stroke-width="2" stroke-miterlimit="8" fill="#996633" fill-rule="evenodd"/><path d="M1062 80.167C1062 67.9245 1071.92 58 1084.17 58L1228.83 58C1241.08 58 1251 67.9245 1251 80.167L1251 168.833C1251 181.075 1241.08 191 1228.83 191L1084.17 191C1071.92 191 1062 181.075 1062 168.833Z" stroke="#042433" stroke-width="2" stroke-miterlimit="8" fill="#996633" fill-rule="evenodd"/><path d="M199 271.001C199 253.879 212.879 240 230.001 240L802.999 240C820.121 240 834 253.879 834 271.001L834 394.999C834 412.121 820.121 426 802.999 426L230.001 426C212.879 426 199 412.121 199 394.999Z" stroke="#042433" stroke-width="2" stroke-miterlimit="8" fill="#996633" fill-rule="evenodd"/><path d="M199 477.834C199 460.805 212.805 447 229.834 447L803.166 447C820.195 447 834 460.805 834 477.834L834 601.166C834 618.195 820.195 632 803.166 632L229.834 632C212.805 632 199 618.195 199 601.166Z" stroke="#042433" stroke-width="2" stroke-miterlimit="8" fill="#996633" fill-rule="evenodd"/><path d="M896.167 638C880.611 638 868 625.389 868 609.833L868 268.167C868 252.611 880.611 240 896.167 240L1008.83 240C1024.39 240 1037 252.611 1037 268.167L1037 609.833C1037 625.389 1024.39 638 1008.83 638Z" stroke="#042433" stroke-width="2" stroke-miterlimit="8" fill="#996633" fill-rule="evenodd"/><path d="M1062 262.167C1062 249.925 1071.92 240 1084.17 240L1228.83 240C1241.08 240 1251 249.925 1251 262.167L1251 350.833C1251 363.076 1241.08 373 1228.83 373L1084.17 373C1071.92 373 1062 363.076 1062 350.833Z" stroke="#042433" stroke-width="2" stroke-miterlimit="8" fill="#996633" fill-rule="evenodd"/><path d="M13 36.5C13 18.5507 27.9985 4 46.5 4 65.0015 4 80 18.5507 80 36.5 80 54.4492 65.0015 69 46.5 69 27.9985 69 13 54.4492 13 36.5Z" stroke="#042433" stroke-width="2" stroke-miterlimit="8" fill="#996633" fill-rule="evenodd"/><path d="M723 13.8003C723 6.17861 729.179-2.21608e-15 736.8-4.43215e-15L1266.2 0C1273.82-4.43215e-15 1280 6.17861 1280 13.8003L1280 32.2003C1280 39.822 1273.82 46.0006 1266.2 46.0006L736.8 46C729.179 46 723 39.8214 723 32.1997Z" fill="#996633" fill-rule="evenodd"/><path d="M758 12.7777C758 5.72079 763.721-4.15361e-15 770.778-4.15361e-15L1267.22 0C1274.28-4.15361e-15 1280 5.72079 1280 12.7777L1280 33.2223C1280 40.2792 1274.28 46 1267.22 46L770.778 46C763.721 46 758 40.2792 758 33.2223Z" fill-rule="evenodd"/><rect x="1132" y="0" width="148" height="46"/></g></svg>